<svg height="512" viewBox="0 0 256 256" width="512" xmlns="http://www.w3.org/2000/svg"><path d="m38.243 231.651h117.857v-86.559a32.231 32.231 0 0 0 -16.06-27.882 32.231 32.231 0 0 0 -16.169-4.349h-79.054a32.232 32.232 0 0 0 -16.169 4.349 32.231 32.231 0 0 0 -16.061 27.881v86.559z" fill="#63bce7"/><path d="m44.148 117.21a32.231 32.231 0 0 1 16.169-4.349h-15.5a32.231 32.231 0 0 0 -16.169 4.349 32.231 32.231 0 0 0 -16.061 27.881v86.559h15.5v-86.558a32.231 32.231 0 0 1 16.061-27.882z" fill="#6377e7"/><path d="m124.54 117.21a32.231 32.231 0 0 0 -16.169-4.349h15.5a32.231 32.231 0 0 1 16.169 4.349 32.231 32.231 0 0 1 16.06 27.882v86.559h-15.5v-86.559a32.231 32.231 0 0 0 -16.06-27.882z" fill="#63e2e7"/><path d="m67.864 112.861 16.475 65.718h.01l16.475-65.718z" fill="#9e9e9e"/><path d="m72.864 80.048h22.96a0 0 0 0 1 0 0v28.8a10.5 10.5 0 0 1 -10.5 10.5h-1.96a10.5 10.5 0 0 1 -10.5-10.5v-28.8a0 0 0 0 1 0 0z" fill="#f8af23"/><path d="m72.864 80.048v28.8a10.5 10.5 0 0 0 8.667 10.33v-39.13z" fill="#f87023"/><path d="m72.864 107.932 11.48 11.75-14.033 8-2.447-14.821z" fill="#f46275"/><path d="m95.824 107.932-11.48 11.75 14.033 8 2.447-14.821z" fill="#f46275"/><circle cx="49.594" cy="63.793" fill="#f87023" r="7.75"/><circle cx="117.613" cy="63.793" fill="#f8af23" r="7.75"/><rect fill="#f8af23" height="80.974" rx="34.75" width="69.5" x="49.594" y="22.902"/><path d="m65.094 69.127v-11.475a34.755 34.755 0 0 1 27-33.872 34.828 34.828 0 0 0 -7.75-.878 34.75 34.75 0 0 0 -34.75 34.75v11.475a34.75 34.75 0 0 0 34.75 34.75 34.828 34.828 0 0 0 7.75-.878 34.755 34.755 0 0 1 -27-33.872z" fill="#f87023"/><path d="m116.302 64.71 2.792 2.833v-24.583h-7.042z" fill="#9e9e9e"/><path d="m49.594 67.543 5.583-2.833v-2.936a9.911 9.911 0 0 1 4.1-8.031l2.611-1.888a15.7 15.7 0 0 1 9.2-2.978h46.626a5.625 5.625 0 0 0 5.625-5.625v-10.752a19.125 19.125 0 0 0 -19.125-19.125h-30.103a21.167 21.167 0 0 0 -15.264 6.5l-6 6.248-5.121 4.389a14.562 14.562 0 0 0 -4.5 15.127z" fill="#9e9e9e"/><path d="m63.224 30.515 5.121-4.389 6-6.248a21.167 21.167 0 0 1 15.264-6.5h-15.5a21.167 21.167 0 0 0 -15.264 6.5l-6 6.248-5.121 4.389a14.563 14.563 0 0 0 -4.5 15.127l6.375 21.9 5.583-2.833v-2.935a9.911 9.911 0 0 1 4.1-8.031l1.483-1.073-2.046-7.028a14.563 14.563 0 0 1 4.505-15.127z" fill="#707070"/><circle cx="95.824" cy="65.751" fill="#3f3679" r="3.25"/><circle cx="72.864" cy="65.751" fill="#3f3679" r="3.25"/><path d="m100.824 112.861-16.48 65.737 22-23.924h-5.52l5.52-6.909v-34.904z" fill="#63bce7"/><path d="m67.864 112.861 16.48 65.737-22-23.924h5.52l-5.52-6.909v-34.904z" fill="#63bce7"/><path d="m67.864 112.861 16.48 65.737-22-23.924h5.52l-5.52-6.909v-34.904z" fill="#63bce7"/><path d="m243.414 65.68a45.013 45.013 0 1 0 -75.368 33.234v20.6a30.355 30.355 0 0 0 30.354 30.358 30.355 30.355 0 0 0 30.355-30.355v-20.6a44.893 44.893 0 0 0 14.659-33.237z" fill="#f8af23"/><path d="m198.4 20.667a45.239 45.239 0 0 0 -7.75.679 45.005 45.005 0 0 1 22.6 77.569v20.6a30.365 30.365 0 0 1 -22.6 29.353 30.381 30.381 0 0 0 7.75 1 30.355 30.355 0 0 0 30.355-30.355v-20.6a45.011 45.011 0 0 0 -30.355-78.246z" fill="#f8d323"/><path d="m168.046 119.517a30.355 30.355 0 0 0 30.354 30.355 30.355 30.355 0 0 0 30.355-30.355v-4.023h-60.71z" fill="#9e9e9e"/><path d="m213.256 115.494v4.023a30.365 30.365 0 0 1 -22.6 29.353 30.381 30.381 0 0 0 7.75 1 30.355 30.355 0 0 0 30.355-30.355v-4.023z" fill="#cecece"/><g fill="#3f3679"><path d="m215.056 67.523v11.431a3.137 3.137 0 0 1 -1 2.317 3.279 3.279 0 0 1 -2.376.982h-10.058v8.052a3.152 3.152 0 0 1 -.982 2.338 3.2 3.2 0 0 1 -2.318.962 3.292 3.292 0 0 1 -2.4-.962 3.15 3.15 0 0 1 -.982-2.338v-8.13h-9.977a3.2 3.2 0 0 1 -2.317-.962 3.15 3.15 0 0 1 -.982-2.338 3.285 3.285 0 0 1 3.3-3.3h23.336v-4.752h-23.255a3.215 3.215 0 0 1 -2.337-.943 3.16 3.16 0 0 1 -.963-2.357v-11.391a3.287 3.287 0 0 1 3.3-3.3h9.9v-8.052a3.259 3.259 0 0 1 3.418-3.3 3.138 3.138 0 0 1 2.3.962 3.184 3.184 0 0 1 .962 2.338v8.052h10.135a3.282 3.282 0 0 1 2.376.982 3.141 3.141 0 0 1 1 2.318 3.421 3.421 0 0 1 -3.378 3.378h-23.335v4.713h23.254a3.282 3.282 0 0 1 2.376.982 3.139 3.139 0 0 1 1.003 2.318z"/><path d="m27.323 241.123h-18a1.5 1.5 0 1 0 0 3h18a1.5 1.5 0 1 0 0-3z"/><path d="m246.68 241.123h-18a1.5 1.5 0 0 0 0 3h18a1.5 1.5 0 0 0 0-3z"/><path d="m218.479 241.123h-180.958a1.5 1.5 0 0 0 0 3h180.958a1.5 1.5 0 0 0 0-3z"/><path d="m9.32 233.15h237.36a1.5 1.5 0 0 0 0-3h-89.08v-85.058a33.731 33.731 0 0 0 -33.731-33.731h-22.43l-4.115-4.061v-4.339a36.33 36.33 0 0 0 23.1-30.364 9.244 9.244 0 0 0 .17-17.561v-5.27a7.131 7.131 0 0 0 4.25-6.514v-10.752a20.648 20.648 0 0 0 -20.625-20.625h-30.108a22.777 22.777 0 0 0 -16.345 6.965l-5.953 6.2-5.065 4.342a16.092 16.092 0 0 0 -4.969 16.685l2.89 9.926a9.231 9.231 0 0 0 3.631 16.955 36.336 36.336 0 0 0 23.067 30.017v4.335l-4.115 4.057h-22.435a33.731 33.731 0 0 0 -33.731 33.731v85.062h-1.766a1.5 1.5 0 1 0 0 3zm63.524-123.092 9.07 9.283-9.514 5.426-2.868-11.44zm11.5 11.35 11.191 6.38-11.191 44.641-11.191-44.641zm11.5-11.35 3.316 3.27-2.868 11.44-9.518-5.426zm43.444 8.45a30.824 30.824 0 0 1 15.312 26.584v85.058h-22.655v-76.135a1.5 1.5 0 0 0 -3 0v76.135h-43.1v-50.966l21.6-23.494a1.5 1.5 0 0 0 -1.1-2.516h-2.4l3.574-4.473a1.5 1.5 0 0 0 .328-.937v-33.4h16.027a30.774 30.774 0 0 1 15.414 4.144zm-34.444 28.731-5.192 6.5a1.5 1.5 0 0 0 1.172 2.437h2.1l-15.69 17.064 7.684-30.651 7.077-28.229h2.85zm12.75-83.739-2.564-13.123h2.564zm6.269.293a6.228 6.228 0 0 1 -3.273 5.476c0-.048 0-.094 0-.142v-10.806a6.243 6.243 0 0 1 3.273 5.472zm-75.163-32.139 5.121-4.389a1.353 1.353 0 0 0 .105-.1l6-6.248a19.764 19.764 0 0 1 14.182-6.041h30.108a17.645 17.645 0 0 1 17.628 17.624v10.75a4.13 4.13 0 0 1 -4.125 4.125h-46.626a17.1 17.1 0 0 0 -10.08 3.262l-2.613 1.889a11.443 11.443 0 0 0 -4.725 9.247v2.016l-3.148 1.6-5.87-20.163a13.087 13.087 0 0 1 4.043-13.572zm-5.356 32.139a6.226 6.226 0 0 1 2.212-4.754l2.538 8.719v1.37c0 .247.014.491.019.737a6.244 6.244 0 0 1 -4.769-6.072zm7.75 5.334v-.663l4.762-2.416a1.5 1.5 0 0 0 .821-1.338v-2.937a8.434 8.434 0 0 1 3.483-6.815l2.611-1.888a14.121 14.121 0 0 1 8.322-2.693h40.88l2.857 14.623a1.5 1.5 0 0 0 .4.765l2.36 2.4v.969a33.25 33.25 0 0 1 -66.5 0zm33.25 36.25a36.131 36.131 0 0 0 9.979-1.408v3.353l-9.979 10.214-9.98-10.214v-3.353a36.134 36.134 0 0 0 9.98 1.408zm-17.65 8.983 14.76 58.88-15.693-17.066h2.1a1.5 1.5 0 0 0 1.172-2.437l-5.192-6.5v-32.877zm-52.608 30.732a30.732 30.732 0 0 1 30.731-30.732h16.027v33.4a1.5 1.5 0 0 0 .328.937l3.574 4.473h-2.4a1.5 1.5 0 0 0 -1.1 2.516l21.6 23.494v50.97h-43.1v-76.135a1.5 1.5 0 0 0 -3 0v76.135h-22.66z"/><path d="m79.364 58.627a1.5 1.5 0 0 0 -1.5-1.5h-10a1.5 1.5 0 0 0 0 3h10a1.5 1.5 0 0 0 1.5-1.5z"/><path d="m90.824 60.127h10a1.5 1.5 0 0 0 0-3h-10a1.5 1.5 0 0 0 0 3z"/><path d="m84.344 83.043a1.5 1.5 0 0 0 1.5-1.5v-10a1.5 1.5 0 0 0 -3 0v10a1.5 1.5 0 0 0 1.5 1.5z"/><path d="m91.044 89.94a1.5 1.5 0 1 0 -2.209-2.029 6.1 6.1 0 0 1 -8.983 0 1.5 1.5 0 1 0 -2.208 2.031 9.1 9.1 0 0 0 13.4 0z"/><path d="m117.613 89.884a1.5 1.5 0 1 0 0 3h19.987a1.491 1.491 0 0 0 .629-.139l17.689-8.176a46.567 46.567 0 0 0 10.625 15v19.949a31.855 31.855 0 0 0 63.709 0v-19.95a46.532 46.532 0 1 0 -75.469-17.778l-17.511 8.094zm109.642 29.634a28.855 28.855 0 0 1 -57.709 0v-2.523h57.709zm-28.855-97.351a43.51 43.51 0 0 1 29.343 75.64 1.5 1.5 0 0 0 -.488 1.107v15.08h-27.355v-12.244a1.5 1.5 0 0 0 -3 0v12.244h-27.354v-15.08a1.5 1.5 0 0 0 -.488-1.107 43.51 43.51 0 0 1 29.342-75.64z"/></g></svg>