<svg id="Capa_1" enable-background="new 0 0 512 512" height="512" viewBox="0 0 512 512" width="512" xmlns="http://www.w3.org/2000/svg"><g><g><g><g><path d="m256 214.471v265.159l6.817-.862 249.183 33.232v-294.164z" fill="#22cac8"/><path d="m0 215.362v296.638l256-32.37v-265.159z" fill="#6ae1db"/></g><g><path d="m0 512h256l36.872-52.388-36.872-153.908z" fill="#22cac8"/></g><path d="m256 305.704v206.296h256z" fill="#1daeb3"/><g><g><path d="m4.329 199.471-4.329 12.103v2.897c0 36.786 18.849 70.21 50.419 89.412l49.271 29.966 156.31 17.358 38.854-39.227-38.854-112.509z" fill="#22cac8"/></g><path d="m256 199.471v134.378h156.31l49.271-29.966c31.57-19.202 50.419-52.627 50.419-89.412v-2.897l-6.101-12.103z" fill="#1daeb3"/></g></g><g><path d="m99.69 109.817h.047v89.653h-.047z" fill="#e7ffff"/><rect fill="#6ae1db" height="134.378" width="0" x="99.69" y="199.471"/></g></g><g><g><path d="m0 211.574c0-36.786 18.849-67.34 50.419-86.542l205.581-125.032 38.854 116.936-38.854 94.638z" fill="#1daeb3"/></g><path d="m256 211.574v-211.574l205.581 125.032c31.57 19.202 50.419 49.757 50.419 86.542z" fill="#009aa8"/></g><path d="m99.737 109.817-.047 224.032 156.31 95.066 60.322-146.127-60.322-172.971z" fill="#e7ffff"/><path d="m256 109.817v319.098l.059-.036 156.251-95.03v-224.032z" fill="#daf2fe"/><g><path d="m376.74 77.431-97.738 97.737c-10.899 10.901-17.708 25.355-19.173 40.7l-3.829 40.132 126.97-75.741 37.752-88.981z" fill="#fde01d"/><path d="m296.132 252.171c15.345-1.465 29.798-8.274 40.7-19.174l97.738-97.737-13.847-43.982-164.722 164.722z" fill="#feca20"/><path d="m500.043 11.957c-15.943-15.943-41.885-15.942-57.829 0l-30.552 30.552 14.668 43.161 53.942-27.814z" fill="#e9486f"/><path d="m426.329 85.67 43.161 14.668 30.553-30.553c15.942-15.944 15.942-41.886-.001-57.828z" fill="#dd2056"/></g><g><path d="m411.661 42.509-34.921 34.922 28.915 28.914 34.921-6.007v-28.914z" fill="#feca20"/></g><path d="m412.88 82.896h49.386v40.891h-49.386z" fill="#fab600" transform="matrix(.707 -.707 .707 .707 55.088 339.679)"/></g></svg>