<?xml version="1.0"?>
<svg xmlns="http://www.w3.org/2000/svg" viewBox="0 0 128 128" width="512" height="512"><path d="M113.05,79.481h-16.7V45.352a5.382,5.382,0,0,0-5.375-5.375H86V32.5a19.887,19.887,0,0,0-39.773,0v7.477H41.255a5.382,5.382,0,0,0-5.375,5.375V79.481H19.174a6.456,6.456,0,0,0-6.449,6.449v27.232a6.456,6.456,0,0,0,6.449,6.449H113.05a6.457,6.457,0,0,0,6.45-6.449V85.93A6.457,6.457,0,0,0,113.05,79.481ZM53.751,32.5a12.362,12.362,0,1,1,24.723,0v7.477H53.751Z" fill="#e6e7e8"/><rect x="9.5" y="76.256" width="104.626" height="37.981" rx="5" ry="5" fill="#fa759e"/><path d="M34.4,92.591a1.829,1.829,0,0,1,.451,1.25,1.907,1.907,0,0,1-.451,1.271,1.469,1.469,0,0,1-1.272.492l-4.018-.2,2.215,3.322a1.669,1.669,0,0,1,.287.9,1.553,1.553,0,0,1-.6,1.21,1.986,1.986,0,0,1-1.333.512,1.476,1.476,0,0,1-1.394-.86l-1.8-3.567-1.8,3.567a1.528,1.528,0,0,1-1.394.9,1.99,1.99,0,0,1-1.333-.513,1.541,1.541,0,0,1-.307-2.111L23.861,95.4l-4.018.2a1.492,1.492,0,0,1-1.271-.471,1.827,1.827,0,0,1-.451-1.251,1.9,1.9,0,0,1,.451-1.271,1.47,1.47,0,0,1,1.271-.492l4.018.2L21.647,89a1.54,1.54,0,0,1-.287-.9,1.5,1.5,0,0,1,.594-1.189,2.039,2.039,0,0,1,1.333-.492,1.478,1.478,0,0,1,1.394.861l1.8,3.567,1.8-3.567a1.5,1.5,0,0,1,1.435-.9,1.942,1.942,0,0,1,1.292.512,1.556,1.556,0,0,1,.6,1.21,1.54,1.54,0,0,1-.287.9l-2.215,3.321,4.018-.2A1.5,1.5,0,0,1,34.4,92.591Z" fill="#fff"/><path d="M52.932,92.591a1.829,1.829,0,0,1,.451,1.25,1.907,1.907,0,0,1-.451,1.271,1.469,1.469,0,0,1-1.272.492l-4.018-.2,2.215,3.322a1.667,1.667,0,0,1,.286.9,1.552,1.552,0,0,1-.594,1.21,1.986,1.986,0,0,1-1.333.512,1.476,1.476,0,0,1-1.394-.86l-1.8-3.567-1.8,3.567a1.528,1.528,0,0,1-1.394.9,1.99,1.99,0,0,1-1.333-.513,1.542,1.542,0,0,1-.308-2.111L42.394,95.4l-4.018.2a1.492,1.492,0,0,1-1.271-.471,1.827,1.827,0,0,1-.452-1.251,1.9,1.9,0,0,1,.452-1.271,1.47,1.47,0,0,1,1.271-.492l4.018.2L40.179,89a1.539,1.539,0,0,1-.286-.9,1.5,1.5,0,0,1,.594-1.189,2.039,2.039,0,0,1,1.333-.492,1.478,1.478,0,0,1,1.394.861l1.8,3.567,1.8-3.567a1.5,1.5,0,0,1,1.435-.9,1.942,1.942,0,0,1,1.292.512,1.555,1.555,0,0,1,.594,1.21,1.539,1.539,0,0,1-.286.9l-2.215,3.321,4.018-.2A1.5,1.5,0,0,1,52.932,92.591Z" fill="#fff"/><path d="M71.464,92.591a1.825,1.825,0,0,1,.452,1.25,1.9,1.9,0,0,1-.452,1.271,1.466,1.466,0,0,1-1.271.492l-4.018-.2,2.215,3.322a1.667,1.667,0,0,1,.286.9,1.552,1.552,0,0,1-.594,1.21,1.989,1.989,0,0,1-1.333.512,1.476,1.476,0,0,1-1.394-.86l-1.8-3.567-1.8,3.567a1.528,1.528,0,0,1-1.394.9,1.99,1.99,0,0,1-1.333-.513,1.542,1.542,0,0,1-.308-2.111L60.927,95.4l-4.018.2a1.492,1.492,0,0,1-1.271-.471,1.823,1.823,0,0,1-.452-1.251,1.9,1.9,0,0,1,.452-1.271,1.47,1.47,0,0,1,1.271-.492l4.018.2L58.712,89a1.539,1.539,0,0,1-.286-.9,1.5,1.5,0,0,1,.594-1.189,2.039,2.039,0,0,1,1.333-.492,1.478,1.478,0,0,1,1.394.861l1.8,3.567,1.8-3.567a1.5,1.5,0,0,1,1.435-.9,1.944,1.944,0,0,1,1.292.512,1.555,1.555,0,0,1,.594,1.21,1.539,1.539,0,0,1-.286.9l-2.215,3.321,4.018-.2A1.5,1.5,0,0,1,71.464,92.591Z" fill="#fff"/><path d="M90,92.591a1.825,1.825,0,0,1,.452,1.25A1.9,1.9,0,0,1,90,95.112a1.466,1.466,0,0,1-1.271.492l-4.018-.2,2.215,3.322a1.667,1.667,0,0,1,.286.9,1.552,1.552,0,0,1-.594,1.21,1.989,1.989,0,0,1-1.333.512,1.476,1.476,0,0,1-1.394-.86l-1.8-3.567-1.8,3.567a1.529,1.529,0,0,1-1.394.9,1.99,1.99,0,0,1-1.333-.513,1.542,1.542,0,0,1-.308-2.111L79.46,95.4l-4.018.2a1.492,1.492,0,0,1-1.271-.471,1.823,1.823,0,0,1-.452-1.251,1.9,1.9,0,0,1,.452-1.271,1.47,1.47,0,0,1,1.271-.492l4.018.2L77.245,89a1.539,1.539,0,0,1-.286-.9,1.5,1.5,0,0,1,.594-1.189,2.039,2.039,0,0,1,1.333-.492,1.478,1.478,0,0,1,1.394.861l1.8,3.567,1.8-3.567a1.5,1.5,0,0,1,1.435-.9,1.944,1.944,0,0,1,1.292.512,1.555,1.555,0,0,1,.594,1.21,1.539,1.539,0,0,1-.286.9l-2.215,3.321,4.018-.2A1.5,1.5,0,0,1,90,92.591Z" fill="#fff"/><path d="M91.5,106.019a1.881,1.881,0,0,1-.595-1.476,1.948,1.948,0,0,1,.595-1.5,2.533,2.533,0,0,1,1.784-.553h8.446a2.532,2.532,0,0,1,1.783.553,1.945,1.945,0,0,1,.6,1.5,1.879,1.879,0,0,1-.6,1.476,2.594,2.594,0,0,1-1.783.533H93.279A2.6,2.6,0,0,1,91.5,106.019Z" fill="#fff"/><path d="M75.249,36.753V28.2a13.437,13.437,0,0,0-26.873,0v8.553H43V28.2a18.811,18.811,0,1,1,37.622,0v8.553Z" fill="#d4fbff"/><path d="M86.97,36.753H36.656a4,4,0,0,0-4,4v35.5H90.97v-35.5A4,4,0,0,0,86.97,36.753Z" fill="#6dc9f7"/><path d="M86.97,36.753H36.656a4,4,0,0,0-4,4v3a4,4,0,0,1,4-4H86.97a4,4,0,0,1,4,4v-3A4,4,0,0,0,86.97,36.753Z" fill="#fff"/><path d="M109.125,75.256H91.97v-34.5a5.006,5.006,0,0,0-5-5H81.624V28.2A19.812,19.812,0,0,0,42,28.2v7.553H36.656a5.006,5.006,0,0,0-5,5v34.5H14.5a6.006,6.006,0,0,0-6,6v27.98a6.006,6.006,0,0,0,6,6H30.667a1,1,0,1,0,0-2H14.5a4,4,0,0,1-4-4V81.256a4,4,0,0,1,4-4h94.625a4,4,0,0,1,4,4v27.98a4,4,0,0,1-4,4H46.333a1,1,0,0,0,0,2h62.792a6.006,6.006,0,0,0,6-6V81.256A6.006,6.006,0,0,0,109.125,75.256ZM44,28.2a17.812,17.812,0,0,1,35.623,0v7.553H76.25V28.2a14.437,14.437,0,0,0-28.874,0v7.553H44Zm5.375,7.553V28.2a12.437,12.437,0,0,1,24.874,0v7.553Zm-15.72,39.5v-34.5a3,3,0,0,1,3-3H86.97a3,3,0,0,1,3,3v34.5Z" fill="#3a2c60"/><path d="M42.449,113.236H34.667a1,1,0,0,0,0,2h7.782a1,1,0,0,0,0-2Z" fill="#3a2c60"/><path d="M61.813,47.681a6,6,0,0,0-2.6,11.406v7.136a2.6,2.6,0,0,0,5.2,0V59.087a6,6,0,0,0-2.6-11.406Z" fill="#3a2c60"/></svg>
