<?xml version="1.0" encoding="UTF-8" standalone="no"?>
<!-- Generator: Adobe Illustrator 19.0.0, SVG Export Plug-In . SVG Version: 6.00 Build 0)  -->

<svg
   xmlns:dc="http://purl.org/dc/elements/1.1/"
   xmlns:cc="http://creativecommons.org/ns#"
   xmlns:rdf="http://www.w3.org/1999/02/22-rdf-syntax-ns#"
   xmlns:svg="http://www.w3.org/2000/svg"
   xmlns="http://www.w3.org/2000/svg"
   xmlns:sodipodi="http://sodipodi.sourceforge.net/DTD/sodipodi-0.dtd"
   xmlns:inkscape="http://www.inkscape.org/namespaces/inkscape"
   version="1.1"
   id="Capa_1"
   x="0px"
   y="0px"
   viewBox="0 0 512 512"
   style="enable-background:new 0 0 512 512;"
   xml:space="preserve"
   sodipodi:docname="secure-data.svg"
   inkscape:version="0.92.4 (5da689c313, 2019-01-14)"><metadata
   id="metadata91"><rdf:RDF><cc:Work
       rdf:about=""><dc:format>image/svg+xml</dc:format><dc:type
         rdf:resource="http://purl.org/dc/dcmitype/StillImage" /></cc:Work></rdf:RDF></metadata><defs
   id="defs89" /><sodipodi:namedview
   pagecolor="#ffffff"
   bordercolor="#666666"
   borderopacity="1"
   objecttolerance="10"
   gridtolerance="10"
   guidetolerance="10"
   inkscape:pageopacity="0"
   inkscape:pageshadow="2"
   inkscape:window-width="1366"
   inkscape:window-height="705"
   id="namedview87"
   showgrid="false"
   inkscape:zoom="0.4609375"
   inkscape:cx="-14.101695"
   inkscape:cy="256"
   inkscape:window-x="-8"
   inkscape:window-y="-8"
   inkscape:window-maximized="1"
   inkscape:current-layer="Capa_1" />
<g
   id="g54"
   transform="matrix(0.8220339,0,0,0.75423729,45.559322,62.915254)">
	<g
   transform="translate(1,1)"
   id="g22">
		<path
   style="fill:#9e9e9e"
   d="m 451.268,67.267 -0.002,315.051 c 0.18,19.036 -15.097,34.619 -34.133,34.816 H 41.667 C 22.631,416.937 7.354,401.354 7.534,382.318 L 7.532,67.267 Z"
   id="path2"
   inkscape:connector-curvature="0" />
		<path
   style="fill:#f5f5f5"
   d="m 425.668,67.267 -0.002,315.051 c 0.18,19.036 -15.097,34.619 -34.133,34.816 H 41.667 C 22.631,416.937 7.354,401.354 7.534,382.318 L 7.532,67.267 Z"
   id="path4"
   inkscape:connector-curvature="0" />
		<path
   style="fill:#6a1b9a"
   d="M 451.267,41.667 V 75.8 H 7.533 V 41.667 C 7.533,22.816 22.815,7.534 41.666,7.534 h 375.467 c 18.852,-10e-4 34.134,15.281 34.134,34.133 z"
   id="path6"
   inkscape:connector-curvature="0" />
		<path
   style="fill:#9d27b0"
   d="M 425.667,41.667 V 75.8 H 7.533 V 41.667 C 7.533,22.816 22.815,7.534 41.666,7.534 h 349.867 c 18.852,-10e-4 34.134,15.281 34.134,34.133 z"
   id="path8"
   inkscape:connector-curvature="0" />
		<path
   style="fill:#558b30"
   d="m 502.467,323.267 v 128 c 0,28.277 -22.923,51.2 -51.2,51.2 H 331.8 c -28.277,0 -51.2,-22.923 -51.2,-51.2 v -128 c 0,-4.713 3.821,-8.533 8.533,-8.533 h 204.8 c 4.713,-10e-4 8.534,3.82 8.534,8.533 z"
   id="path10"
   inkscape:connector-curvature="0" />
		<g
   id="g18">
			<path
   style="fill:#8bc34a"
   d="m 476.867,323.267 v 128 c 0,28.277 -22.923,51.2 -51.2,51.2 H 331.8 c -28.277,0 -51.2,-22.923 -51.2,-51.2 v -128 c 0,-4.713 3.821,-8.533 8.533,-8.533 h 179.2 c 4.713,-10e-4 8.534,3.82 8.534,8.533 z"
   id="path12"
   inkscape:connector-curvature="0" />
			<rect
   x="58.733002"
   y="127"
   style="fill:#8bc34a"
   width="85.333"
   height="85.333"
   id="rect14" />
			<rect
   x="58.733002"
   y="272.06699"
   style="fill:#8bc34a"
   width="85.333"
   height="85.333"
   id="rect16" />
		</g>
		<circle
   style="fill:#558b30"
   cx="391.53299"
   cy="391.53299"
   r="17.066999"
   id="circle20" />
	</g>
	<g
   id="g52">
		<path
   d="m 51.2,51.2 h 8.533 c 4.713,0 8.533,-3.821 8.533,-8.533 0,-4.712 -3.821,-8.533 -8.533,-8.533 H 51.2 c -4.713,0 -8.533,3.821 -8.533,8.533 0,4.712 3.82,8.533 8.533,8.533 z"
   id="path24"
   inkscape:connector-curvature="0" />
		<path
   d="m 93.867,51.2 h 8.533 c 4.713,0 8.533,-3.821 8.533,-8.533 0,-4.712 -3.821,-8.533 -8.533,-8.533 h -8.533 c -4.713,0 -8.533,3.821 -8.533,8.533 0,4.712 3.82,8.533 8.533,8.533 z"
   id="path26"
   inkscape:connector-curvature="0" />
		<path
   d="m 136.533,51.2 h 8.533 c 4.713,0 8.533,-3.821 8.533,-8.533 0,-4.712 -3.821,-8.533 -8.533,-8.533 h -8.533 c -4.713,0 -8.533,3.821 -8.533,8.533 0,4.712 3.821,8.533 8.533,8.533 z"
   id="path28"
   inkscape:connector-curvature="0" />
		<path
   d="m 179.2,51.2 h 230.4 c 4.713,0 8.533,-3.821 8.533,-8.533 0,-4.712 -3.821,-8.533 -8.533,-8.533 H 179.2 c -4.713,0 -8.533,3.821 -8.533,8.533 0,4.712 3.82,8.533 8.533,8.533 z"
   id="path30"
   inkscape:connector-curvature="0" />
		<path
   d="M 494.933,307.2 H 486.4 v -42.667 c -0.007,-23.893 -9.168,-46.876 -25.6,-64.222 V 42.667 C 460.772,19.114 441.686,0.028 418.133,0 H 42.667 C 19.114,0.028 0.028,19.114 0,42.667 V 384 c 0.028,23.552 19.114,42.638 42.667,42.667 h 230.4 v 25.6 c 0.038,32.974 26.759,59.696 59.733,59.733 h 119.467 c 32.974,-0.038 59.696,-26.759 59.733,-59.733 v -128 c 0,-9.426 -7.641,-17.067 -17.067,-17.067 z m -25.6,0 h -153.6 v -42.667 c 0,-42.415 34.385,-76.8 76.8,-76.8 42.415,0 76.8,34.385 76.8,76.8 V 307.2 Z M 42.667,17.067 h 375.467 c 14.138,0 25.6,11.462 25.6,25.6 v 25.6 H 17.067 v -25.6 c 0,-14.139 11.461,-25.6 25.6,-25.6 z M 17.067,384 V 85.333 h 426.667 v 100.625 c -28.829,-18.858 -65.678,-20.386 -95.969,-3.979 -30.291,16.407 -49.143,48.105 -49.098,82.554 V 307.2 h -8.533 c -9.426,0 -17.067,7.641 -17.067,17.067 V 409.6 h -230.4 c -14.139,0 -25.6,-11.462 -25.6,-25.6 z m 435.2,110.933 H 332.8 C 312.532,494.907 295.069,480.652 290.987,460.8 h 24.747 c 4.713,0 8.533,-3.82 8.533,-8.533 0,-4.713 -3.821,-8.533 -8.533,-8.533 h -25.6 v -17.067 h 25.6 c 4.713,0 8.533,-3.82 8.533,-8.533 0,-4.713 -3.821,-8.533 -8.533,-8.533 h -25.6 v -17.067 h 25.6 c 4.713,0 8.533,-3.82 8.533,-8.533 0,-4.713 -3.821,-8.533 -8.533,-8.533 h -25.6 V 358.4 h 25.6 c 4.713,0 8.533,-3.821 8.533,-8.533 0,-4.713 -3.821,-8.533 -8.533,-8.533 h -25.6 v -17.067 h 204.8 v 17.067 h -25.6 c -4.713,0 -8.533,3.821 -8.533,8.533 0,4.713 3.821,8.533 8.533,8.533 h 25.6 v 17.067 h -25.6 c -4.713,0 -8.533,3.821 -8.533,8.533 0,4.712 3.821,8.533 8.533,8.533 h 25.6 V 409.6 h -25.6 c -4.713,0 -8.533,3.82 -8.533,8.533 0,4.713 3.821,8.533 8.533,8.533 h 25.6 v 17.067 h -25.6 c -4.713,0 -8.533,3.82 -8.533,8.533 0,4.713 3.821,8.533 8.533,8.533 h 24.747 c -4.084,19.853 -21.547,34.109 -41.814,34.134 z"
   id="path32"
   inkscape:connector-curvature="0" />
		<path
   d="m 392.533,366.933 c -12.454,-0.024 -23.109,8.939 -25.219,21.212 -2.11,12.274 4.939,24.28 16.686,28.418 V 435.2 c 0,4.713 3.82,8.533 8.533,8.533 4.713,0 8.533,-3.821 8.533,-8.533 v -18.637 c 11.747,-4.137 18.796,-16.144 16.686,-28.418 -2.11,-12.273 -12.765,-21.235 -25.219,-21.212 z m 0,34.134 c -4.713,0 -8.533,-3.82 -8.533,-8.533 0,-4.713 3.82,-8.533 8.533,-8.533 4.713,0 8.533,3.82 8.533,8.533 0,4.713 -3.82,8.533 -8.533,8.533 z"
   id="path34"
   inkscape:connector-curvature="0" />
		<path
   d="m 145.067,170.667 c -4.713,0 -8.533,3.821 -8.533,8.533 v 25.6 H 68.267 V 136.533 H 102.4 c 4.713,0 8.533,-3.821 8.533,-8.533 0,-4.713 -3.821,-8.533 -8.533,-8.533 H 68.267 c -9.426,0 -17.067,7.641 -17.067,17.067 V 204.8 c 0,9.426 7.641,17.067 17.067,17.067 h 68.267 c 9.426,0 17.067,-7.641 17.067,-17.067 v -25.6 c -0.001,-4.713 -3.822,-8.533 -8.534,-8.533 z"
   id="path36"
   inkscape:connector-curvature="0" />
		<path
   d="m 91.366,156.1 c -3.348,-3.234 -8.671,-3.188 -11.962,0.104 -3.291,3.292 -3.338,8.614 -0.104,11.962 l 17.067,17.067 c 1.6,1.6 3.77,2.5 6.033,2.5 h 0.384 c 2.394,-0.107 4.633,-1.215 6.17,-3.055 l 42.667,-51.2 c 1.954,-2.341 2.511,-5.547 1.46,-8.411 -1.051,-2.863 -3.549,-4.948 -6.554,-5.47 -3.005,-0.522 -6.06,0.599 -8.014,2.941 L 101.82,166.57 Z"
   id="path38"
   inkscape:connector-curvature="0" />
		<path
   d="m 145.067,315.733 c -4.713,0 -8.533,3.821 -8.533,8.533 v 25.6 H 68.267 V 281.6 H 102.4 c 4.713,0 8.533,-3.82 8.533,-8.533 0,-4.713 -3.821,-8.533 -8.533,-8.533 H 68.267 c -9.426,0 -17.067,7.641 -17.067,17.067 v 68.267 c 0,9.426 7.641,17.067 17.067,17.067 h 68.267 c 9.426,0 17.067,-7.641 17.067,-17.067 v -25.6 c -0.001,-4.714 -3.822,-8.535 -8.534,-8.535 z"
   id="path40"
   inkscape:connector-curvature="0" />
		<path
   d="m 91.366,301.167 c -3.348,-3.234 -8.671,-3.188 -11.962,0.104 -3.292,3.292 -3.338,8.614 -0.104,11.962 L 96.367,330.3 c 1.6,1.6 3.77,2.5 6.033,2.5 h 0.384 c 2.394,-0.107 4.633,-1.215 6.17,-3.055 l 42.667,-51.2 c 1.954,-2.341 2.511,-5.547 1.46,-8.41 -1.051,-2.863 -3.549,-4.948 -6.554,-5.47 -3.005,-0.522 -6.06,0.599 -8.014,2.941 l -36.693,44.032 z"
   id="path42"
   inkscape:connector-curvature="0" />
		<path
   d="M 187.733,145.067 H 256 c 4.713,0 8.533,-3.821 8.533,-8.533 0,-4.712 -3.82,-8.534 -8.533,-8.534 h -68.267 c -4.713,0 -8.533,3.821 -8.533,8.533 0,4.712 3.821,8.534 8.533,8.534 z"
   id="path44"
   inkscape:connector-curvature="0" />
		<path
   d="m 187.733,187.733 h 110.933 c 4.713,0 8.533,-3.82 8.533,-8.533 0,-4.713 -3.82,-8.533 -8.533,-8.533 H 187.733 c -4.713,0 -8.533,3.821 -8.533,8.533 0,4.712 3.821,8.533 8.533,8.533 z"
   id="path46"
   inkscape:connector-curvature="0" />
		<path
   d="m 256,273.067 h -68.267 c -4.713,0 -8.533,3.82 -8.533,8.533 0,4.713 3.821,8.533 8.533,8.533 H 256 c 4.713,0 8.533,-3.821 8.533,-8.533 0,-4.712 -3.82,-8.533 -8.533,-8.533 z"
   id="path48"
   inkscape:connector-curvature="0" />
		<path
   d="m 247.467,315.733 h -59.733 c -4.713,0 -8.533,3.821 -8.533,8.533 0,4.712 3.821,8.533 8.533,8.533 h 59.733 c 4.713,0 8.533,-3.82 8.533,-8.533 0,-4.713 -3.82,-8.533 -8.533,-8.533 z"
   id="path50"
   inkscape:connector-curvature="0" />
	</g>
</g>
<g
   id="g56">
</g>
<g
   id="g58">
</g>
<g
   id="g60">
</g>
<g
   id="g62">
</g>
<g
   id="g64">
</g>
<g
   id="g66">
</g>
<g
   id="g68">
</g>
<g
   id="g70">
</g>
<g
   id="g72">
</g>
<g
   id="g74">
</g>
<g
   id="g76">
</g>
<g
   id="g78">
</g>
<g
   id="g80">
</g>
<g
   id="g82">
</g>
<g
   id="g84">
</g>
</svg>