<?xml version="1.0" encoding="UTF-8"?>
<svg viewBox="0 0 744.09 1052.4" xmlns="http://www.w3.org/2000/svg">
 <path d="m344.06 335.94l-9.1916 3.4201-22.017 30.781-25.437 5.5577-28.857 10.26-15.177 10.26 1.2825 10.26-17.314-3.4201-12.825 6.8402-8.1228 8.9778 11.543-19.238 30.14-21.59-16.246-21.59-19.666-17.101-2.3513-11.329-23.086 20.521-17.314 10.047-9.1916 5.7715-8.1228-4.4889-7.054 5.5577-9.1916 17.101-11.543 9.1916-19.666 14.749-8.1228 11.329-2.3513 17.101v26.078l-5.7715 20.307 1.2826 17.101 4.4889 22.658 8.1228 6.8402 17.314 11.329 35.911 4.7027 9.1916 3.4201 4.7027 2.1376 5.7715-1.0688 8.1228-2.3513 23.086-4.4889 28.857-10.26 2.3513 57.928 3.6339 62.417-3.6339 46.599 8.1228 7.9091-3.4201 60.28 339.02-1.0688 7.909-36.339 7.054-53.439 3.4201-31.85-1.0688-20.307 4.4889-25.01 2.3513-19.452 2.3513-19.238-3.4201-27.361v-29.498l-4.7027-41.896-14.963-28.43-10.474-18.169-6.8402-22.658-13.894-8.1228-7.054-7.909-58.997-29.498-5.7715-11.329-23.086-17.101-25.437-5.5577-73.96 13.467-15.177 10.26" fill="#292929"/>
 <path d="m325.68 160.02l18.383-1.2825 22.017-2.1376h31.209l18.597 3.4201 11.543 7.909 12.612 16.887 2.3513 25.01-4.4889 12.612h-24.368l-19.666 11.329-17.314 19.238-15.177 2.3513-14.963-4.4889-40.4 2.1376-11.757-5.5577-1.0688-10.26 12.826-13.68 11.543-12.398-2.3513-32.919 4.7027-13.68 5.7715-4.4889"/>
 <g fill="#3f372d">
  <path d="m317.56 241.68h14.963l17.314 7.909 8.1228 3.4201h16.246l11.543-13.467 22.017-20.521 12.612-1.0688 16.246 1.0688-1.0688 11.329 3.4201 10.26v8.9778l-2.3513 10.26-6.8402 10.26 2.1376 29.498 4.7027 18.169 5.7715 9.1916-51.943 53.226-34.842 2.3513-9.1916-17.101 1.0688-38.476-9.1916-2.3513-8.1228-11.329-6.8402-14.749-3.4201-11.329-4.7027-21.59 2.3513-23.941"/>
  <path d="m207.68 335.94l21.803-28.43 3.6339-8.9778 5.7714-4.4889 16.032-11.543 20.948-20.307 6.8402-9.1916 8.1228-3.4201 4.7027 5.7714-7.054 7.909-2.1376 12.612v6.6265l-7.054 9.1916-12.612 12.398-5.7715 5.7715 7.909 7.909-2.1376 10.26-10.474 9.1916-7.054 15.818-11.543 15.818-16.032-19.238-13.894-13.68"/>
 </g>
 <g fill="#845c24">
  <path d="m326.75 256.42l-6.8403 11.329 2.1376 4.7027h8.1228l7.054-2.3513 6.8402 2.3513v-6.8402l-9.1916-1.2825 10.474-1.0688 5.7715 4.4889v10.26l-12.825-3.4201-5.7715 2.3513-8.1228-2.3513-3.4201-1.0688v-7.909l1.0688-7.909-6.8403 2.1376 1.0688 12.612 3.6339 11.329 3.4201 10.26 2.3513-5.7715 5.7714 2.3513 5.7715-2.3513 11.543 4.4889 4.4889-3.4201 7.054 4.7027 11.543 1.0688-1.0688-7.909 5.7715-3.4201 4.4889-1.2826-5.7715-11.329-11.543-8.9778-14.963-4.4889h-12.826l-9.1916-1.2825"/>
  <path d="m331.45 295.12l11.543-1.0688 5.7714 4.4889-4.7027 2.1376-10.474-2.1376-5.7715 1.0688 3.6339-4.4889"/>
  <path d="m342.99 306.44l-8.1228-2.3513-5.7715 4.7027 4.4889 7.909 5.9852 6.8402 10.26-1.2825h12.826l3.4201-10.047-12.825-1.2825-10.26-4.4889"/>
  <path d="m334.87 305.38l8.1228 2.1376 10.26 3.4201 12.825 1.2825-4.7027 10.047h-11.543l-10.26 1.2825-4.7027-7.909-4.7027-6.8403 4.7027-3.4201"/>
  <path d="m349.83 329.1l-1.0688 32.919 11.543 10.26 3.4201 6.8402 20.948-3.4201 16.032-12.398 20.948-19.452v-14.749l-7.054-13.467-10.26 6.6265-9.4053 13.68-13.894 11.329-14.963-2.1376-9.1916-9.1916-7.054-6.8402"/>
  <path d="m415.88 234.84l11.543-4.4889 4.4889 5.7714-9.1916 3.4201-6.8402 1.0688v-2.3513l-1.2826-2.1376 1.2826-1.2825"/>
  <path d="m429.78 244.03v5.5577l-1.2826 4.7027-5.7715 4.4889 1.2826-4.4889 3.4201-1.2826v-2.1376l-2.3513-4.7027 4.7027-2.1376"/>
  <path d="m416.95 249.58l4.7027 4.7027-2.3513 4.4889-3.4201 4.4889v-6.8402l1.0688-6.8402"/>
  <path d="m434.27 244.03l-3.4201 8.9778-5.7714 6.8403-6.8402 5.7714v7.909h6.8402v-10.26l2.3513 2.3513 4.4889-3.4201 5.9852-10.26-1.2826-6.8402-1.0688-5.5577-1.2826 4.4889"/>
  <path d="m215.59 326.96l18.597-26.292 10.474-6.6265 27.788-27.361 14.963-18.169 5.7714 2.3513-8.1228 6.8402-16.246 18.169-19.666 21.59-7.909 3.2064-1.2825 5.7715 10.474-7.909 19.666-21.59 14.963-15.818 7.054-5.7715v6.8402l-7.054 10.26-6.8402 5.5577-8.1228 7.909-17.314 18.169-8.1228 6.8402h6.8402l2.3513-2.1376 9.1916-12.612 8.1228-10.26 9.4053-6.6265-1.2826 6.6265-5.7715 8.1228-12.612 14.749-10.474 11.329-3.4201 7.909-13.894 17.101-4.7027 5.5577-12.825-10.26-3.4201-7.909 3.4201-5.5577"/>
 </g>
 <g fill="#8b9472">
  <path d="m310.5 401.78l-17.314 2.3513-31.209 36.339-16.246 17.101-5.7714 20.307 1.2825 25.01 80.8-8.9778 3.6339-28.43 7.909-27.361 10.474 13.68-10.474 19.452-3.4201 22.658-27.788 8.9778-45.103 4.7027-16.032 5.5577-1.2825 62.417 4.7027 73.96-8.1228 48.737 64.768-6.8403 4.7027-32.918 3.4201 12.612-3.4201 29.498-60.28 2.3513-4.4889 45.317 10.26 15.818 126.12-2.1375-5.7715-97.687 7.054-47.668-8.1228-38.69 1.0688-43.179 10.474-72.678 10.26-33.988-1.0688-23.941-27.788 3.4201-20.734 2.3513-4.7027-10.26-12.612 20.307v-20.307l-15.177 2.1376"/>
  <path d="m341.71 363.3l-16.032 18.169-12.825 7.909 24.368 4.4889 19.666 7.909 11.543-4.4889-11.543-19.238-15.177-14.749"/>
  <path d="m448.16 323.54l-19.666 18.169-29.926 28.43-30.14 28.216 55.577-10.047 1.0688-20.521 38.263 15.818 10.26-28.216 4.7027-16.032-18.597-10.26-11.543-5.5577"/>
  <path d="m438.97 382.54l-3.4201 14.749-32.491 2.3513v13.68l-10.474 21.59-5.7715 24.796-2.1376 37.621 9.1916-1.2825 36.98-4.4889 49.806 11.329 12.612-32.919 2.3513-15.818 1.2826 28.43 9.1916 10.26 4.4889-30.781 1.2825-30.567 22.017-37.621-10.474 30.781-1.0688 25.01v14.749l16.032-20.521 11.543-40.828 4.7027 18.169-5.7715 30.567-23.086 36.339-7.054 18.169-2.1376 31.85 32.277 15.818 10.474 23.941-31.209-19.238-10.474 7.909 1.0688 40.828 8.1228 22.658h-8.1228l-8.1228 12.612 1.2825 121.41 62.417 1.2826 5.7715-80.587 4.7027-36.552-7.054-33.987-13.894-20.521v-15.818l13.894 13.68 8.1228-23.941v-27.147l-25.437-20.521 20.948-5.7714-3.6339-33.987-5.7715-54.508-17.314-31.85-24.368-16.887-47.24-20.521-5.7715 21.59-3.6339 19.238-20.734-12.398-22.017-4.7027 8.1228 2.3513"/>
  <path d="m391.52 498.4l61.348 7.909 30.14 7.909v14.963l3.4201 45.317-13.894-13.68 4.7027 19.452 9.1916 18.169 10.474 25.01-7.054 35.056-12.612-3.4201 3.4201 47.882-35.911-4.7027-56.646-1.0688 2.3513-46.599-8.1228 23.941 2.3513 23.727 68.189 7.9091 35.911 8.1228-4.7027 49.805h-97.26l-5.7714-80.586 1.2825-66.906 5.7715-35.27 14.963 14.749-4.4889-26.078-22.017-32.919 10.26-50.019 4.7027 11.329"/>
  <path d="m208.75 329.1l3.4201 16.032 11.543 10.26-4.4889 16.887-11.543 3.4201-8.1228 11.329-11.543 8.1228-27.788 23.727-12.826 17.101-24.155 36.339 25.437-16.032-9.4053 18.169 16.246-12.398 13.894-14.749 13.894-9.1916-9.1916 17.101-18.597 10.26-16.246 22.658 24.368-11.329-10.474 10.26-24.155 13.68v12.398l20.734-1.0688 20.734-10.26 9.4053-14.749v17.101l-13.894 10.047-27.788 16.032-31.209 1.0688-12.826-13.68-3.4201-26.078 5.7715-29.498v-37.408l8.1228-16.032 13.894-11.329 12.612-7.909 12.825-26.078 22.017-2.3513-1.2825 16.032-9.1916 4.4889h14.963l-4.4889 15.818h8.1228l3.4201-12.398-3.4201-7.909v-19.452l19.666-15.818 14.963-12.612"/>
 </g>
 <path d="m396.22 176.91l-17.314-10.26 13.68 1.2825 22.017 4.4889-10.26-14.749-25.437-3.4201-19.666 6.8402h-25.651l-13.68 2.3513-7.054 10.047v37.621l-10.474 13.467-8.1228 13.68 17.528-6.8402 11.543 3.4201 13.894 6.8402 32.277 10.26 12.825-10.26 10.26-25.01-31.209-2.1376 15.177-3.4201 20.734-2.3513 3.4201-18.169-4.4889-13.68" fill="#343434"/>
 <path d="m315.2 214.53l-11.543 10.047-9.4053 10.26v3.4201l4.7027-1.0688 5.7715-4.4889 15.177 1.0688 12.612 4.4889 16.246 7.909 1.0688-3.4201-9.1916-6.6265-13.894-4.7027-2.3513-2.1376 1.2825-2.3513h1.0688l2.3513-1.0688h10.474l6.8402-2.3513 5.7715-5.5577-10.474-3.4201h-26.506" fill="#606162"/>
 <path d="m389.16 157.67h-34.629l-18.597 2.3513-5.7715 3.4201 26.72-2.3513 25.437 4.4889 26.506 4.4889-4.4889-3.4201-5.7715-3.2064 11.543 2.1376h4.4889l-4.4889-4.4889-12.825-2.3513-8.1228-1.0688" fill="#75756f"/>
 <path d="m325.68 165.58l-9.4053 6.8402-1.0688 12.398 1.0688 26.292 18.597-1.2825 33.56 2.3513-3.4201-7.909-9.4053-9.1916v-8.9778l5.7715-3.4201v-6.8402l-9.1916-4.4889-1.0688-6.8402-17.528-1.0688-7.909 2.1376" fill="#606162"/>
 <path d="m407.76 367.79l-17.314 6.8402-19.666 22.658 16.032 1.0688 19.666-6.6265 18.597-6.8403-5.7715-6.8402-11.543-10.26" fill="#ceaa65"/>
 <path d="m346.41 370.14l-2.3513 27.147-9.1916-5.5577-17.314-3.4201 10.26-14.749 16.246-12.612 2.3513 9.1916" fill="#897b6a"/>
 <path d="m450.51 323.54l-8.1228 3.4201-4.4889 10.26 2.1376 6.6265 10.474-3.4201-6.8402 10.26-8.1228 7.909 11.543 8.1228h10.474l5.7715-16.032v-13.467l-11.757-3.4201-1.0688-10.26" fill="#5c6264"/>
 <path d="m455.22 316.7l-5.7715 8.9778 5.7715 11.543 8.1228 4.4889-5.7715 26.078 6.8402 5.7715 9.1916-29.712-4.4889-10.047-3.6339-6.8402-10.26-10.26" fill="#787169"/>
 <path d="m348.76 407.55l14.963 11.329 24.368-13.68 8.1228 8.1228-8.1228 6.6265-11.543 5.7715 2.3513 14.749 10.26 5.7715v20.307l-11.543-4.4889-13.894-1.0688-4.4889 16.887-11.757 9.1916-11.543-1.0688 8.1228-13.68 8.1228-12.612v-21.59l-13.894-11.329v-11.329l10.474-7.909" fill="#ceaa65"/>
 <g fill="#cecbd8">
  <path d="m313.92 169l5.9852-1.0688v8.9778l-4.7027 1.2825 1.0688-9.1916h-2.3513"/>
  <path d="m327.82 161.09l1.2826 8.9778 2.3513-1.0688v-5.5577h2.1376v5.5577l1.2826 1.0688h1.0688l1.2826-1.0688-1.2826-8.9778h-3.4201l-4.7027 1.0688"/>
  <path d="m337.22 160.02l1.0688 7.909h5.7714v-9.1916l-6.8402 1.2825"/>
  <path d="m346.41 158.74v7.909h1.0688l1.2825-7.909h-2.3513"/>
 </g>
 <g fill="#b5bbae">
  <path d="m359.24 161.09l-5.9852 10.26 3.6339 1.0688 1.0688-4.4889 2.3513 2.1376v2.3513h2.3513l-1.2825-10.26-2.1376-1.0688"/>
  <path d="m366.08 164.51l-3.4201 8.9778 2.3513 1.2826 2.1376-4.7027v5.7714h2.3513v-4.4889h2.3513v-3.4201l-1.0688-1.2825-4.7027-2.1376"/>
 </g>
 <path d="m374.2 170.07l-3.4201 8.1228h1.0688l2.3513-2.3513v3.4201l2.3513-1.0688v2.1376l2.3513 1.2825 1.0688-9.1916h-3.4201l-2.3513-2.3513" fill="#cecbd8"/>
 <path d="m382.32 174.77v4.4889l-3.4201 4.4889 3.4201 1.0688 2.3513-4.4889 3.4201-1.0688v-2.3513l-4.7027 1.2825 1.2825-3.4201h-2.3513" fill="#b5bbae"/>
 <g fill="#9d7840">
  <path d="m351.12 343.85v17.101l5.7715 9.1916 8.1228 7.909h23.086l8.1228-10.26 10.26-10.26 1.2825-13.68-4.7027-5.5577-8.1228 8.9778-9.1916 9.1916-19.666 2.1376-3.4201-10.047-11.543-11.329v6.6265"/>
  <path d="m347.48 261.13l4.7027 8.9778-3.4201 6.8402-10.474 1.0688-11.543 1.2825-2.3513 8.9778h12.826l13.894-2.3513 10.26-3.4201 7.054-4.4889-3.4201-11.329-8.1228-4.4889-9.4053-1.0688"/>
  <path d="m327.82 257.71l-4.4889 6.6265-1.2825 5.7715 2.3513 1.0688 5.7715-1.0688 2.3513-2.3513 7.054 1.2825 2.1376-2.3513-8.1228-1.0688v-3.4201l3.6339-1.0688v-2.3513l-3.6339-1.0688h-5.7714"/>
  <path d="m416.95 236.12l8.1228-3.4201 2.3513 1.0688-1.2826 2.3513-6.8402 2.1376h-1.0688l-1.2826-1.0688v-1.0688"/>
  <path d="m419.3 264.33l1.0688 6.8402 3.6339 1.2826v-5.7714l3.4201-4.4889 3.4201-2.3513 2.3513-5.5577 1.0688-4.7027v-4.4889l-2.3513 7.909-5.7715 6.8403-6.8402 4.4889"/>
 </g>
 <path d="m483 372.28l31.209 17.101-9.4053 14.749-27.575 13.68-4.7027 12.398 10.474 20.521-22.017 4.4889-58.997 3.4201 19.666-57.928 19.666-20.521 31.209 6.8402 10.474-14.749" fill="#877e6d"/>
 <g fill="#585853">
  <path d="m426.14 389.38l17.528 11.329-3.6339 14.749h-18.383l-3.4201 12.612 5.7715 13.467-19.666 6.8403 6.8402 19.452-22.017-16.032 10.474-31.85 4.7027-21.59 21.803-8.9778"/>
  <path d="m483 365.44l10.26 2.3513 20.948 6.8402 14.963 26.078-12.612 19.238-2.3513 28.43-22.017 3.4201-22.017-3.4201-36.98-18.169 32.277-5.5577 13.894-13.68 25.437-14.749-17.314-16.032-4.4889-14.749"/>
  <path d="m483 365.44l4.4889 16.032 17.314 14.749-26.506 14.749-12.826 12.398-32.277 6.8403h-2.3513l39.331 18.169 22.017 4.7027 22.017-4.7027 2.3513-28.43 13.68-19.238-16.032-26.078-10.474-4.4889-10.474-2.3513-10.26-2.3513zm4.4889 14.749l-3.4201-13.467 10.474 2.1376 9.1916 2.3513 10.474 3.4201 14.963 26.078-13.894 19.238-2.3513 27.361-20.734 4.4889-22.017-4.4889-35.911-15.818 31.209-6.8402 13.894-12.612 25.437-15.818h1.2825l-18.597-16.032"/>
 </g>
 <g fill="#7e7a6c">
  <path d="m258.56 451.8l6.8402 18.169 26.72-6.8402 34.629-5.5577-3.4201 31.85-26.72 4.4889-22.017 4.4889v-15.818h-16.032l-15.177 8.9778-2.1376-26.078 17.314-13.68"/>
  <path d="m365.01 467.83l-16.246 19.238-10.474 15.818-2.3513 21.59 26.72-15.818 2.3513 37.408-18.597 14.749h-39.331l6.8402-21.59-9.1916-21.59-22.017 10.26-4.4889 30.781-34.842 11.329-2.1376 66.906 24.155-4.4888 31.209-2.3513-6.8402 14.963 19.666-1.2826 1.0688-4.4889 1.2825-4.4889 4.4889-9.1916 7.054-10.26-13.894-13.467-4.7026-4.7027-1.0688-2.1376v-2.3513l1.0688-2.3513 2.3513-1.0688 8.1228-2.1376 8.1228-1.2825 8.1228 1.2825 9.1916 19.238 17.314-6.8402 2.3513-21.59 11.543-3.4201 2.3513-37.408 12.612-71.609-21.803-13.68 1.0688 7.909v6.8402l-1.0688 1.2826"/>
  <path d="m377.62 621.1l-41.683 11.329v21.59l22.017 17.101-11.543 13.68-34.629-11.543-4.7027 21.589-44.034 6.8402-14.963 4.489-4.7027 56.86 29.071 4.4889 8.1228-18.17-8.1228-21.589 17.314-11.329 22.017 21.59-17.528 18.169 30.14 4.7027 24.368-11.543-3.4201-26.078 34.629 9.1916-8.1228-64.768 5.7715-46.599"/>
  <path d="m577.7 472.32l-28.857 10.26-10.474 20.307 15.177 19.452-15.177 7.909 12.826 18.169 19.666 21.59 11.543 4.4889 2.3513-32.919-26.72-19.238 19.666-2.3513v-47.668"/>
  <path d="m399.64 651.66l40.4-4.4889 10.474-19.238-14.963-10.26-19.666-2.3513 17.314-13.467 17.314-4.7027 1.0688-25.01-16.032-13.467-7.054-14.749v-19.452l22.017-8.9778 8.1228 19.238-8.1228 16.032 30.14 3.2064 9.1916 20.521-12.612-6.8402 2.1376 17.101 15.177 28.43 4.4889 21.59v26.078h-19.666l3.6339 45.317-27.788-8.9779-33.56-2.3513-24.368-19.238 2.3513-23.941"/>
  <path d="m457.57 710.87l-19.666-6.8402h-24.368l-7.054 19.238 19.666 4.4889 17.528 19.452-32.491-2.3514-17.314 2.3514-9.1916 20.307h102.82l2.3513-47.668-32.277-8.9779"/>
  <path d="m565.09 627.94v19.238l-22.017 6.8403-31.209 2.3514v26.078l11.543 8.9776h22.017v25.01l-20.948 4.7027-12.612 16.887v29.498l46.172-6.6265h17.528l-2.3513-45.53 11.543-44.248v-31.85l-11.543-37.408-15.177-23.941-12.612 23.941 8.1228 15.818 11.543 10.26"/>
 </g>
 <path d="m441.32 455.22l35.911-3.4201 7.909 18.169-14.963 10.26-18.597 2.3513 18.597 20.307-24.368-4.4889-43.82-2.3513 2.3513-19.238h24.155l-10.26-25.01 19.666-12.398 3.4201 15.818" fill="#585853"/>
 <path d="m382.32 534.74v-12.398l28.857 14.749 2.3513 16.887 22.017 4.7027 4.4889 23.727h-20.734l18.597 17.101-16.246 13.68-19.666-23.941-5.7715-23.727-13.894-30.781" fill="#c3a86a"/>
 <g fill="#585853">
  <path d="m463.34 627.94l-30.14-2.3513-17.314 9.1916-9.4053-14.749-17.314 3.4201-4.4889 21.59 9.1916 13.467 2.3513 28.43 25.437 5.7715 13.894-5.7715-11.543-15.818-17.528-3.4201 4.7027-11.329 10.474-11.329 16.246-8.1228 25.437 2.3514v-11.329"/>
  <path d="m479.37 658.5l-28.857 4.7027-2.3513 10.047 17.314 13.68-14.963 14.749 30.14 6.8403 4.4889-17.101-5.7714-32.918"/>
  <path d="m455.22 708.52l-22.017 6.8403-14.963 1.0687 10.26 11.329 26.72-2.1375 3.4201 15.818-23.086 3.42-2.3513 18.17h46.172l5.7714-11.329-17.314 2.3513 2.3513-16.032 12.826-1.0688 2.1376-20.521-29.926-7.909"/>
  <path d="m243.38 597.15l8.1228-2.1376 4.7027-1.2826h4.7026l4.4889-15.818h19.666l4.7027 19.238-12.826 11.543h24.368l-9.1916 19.238h-17.528l-6.8402-17.101-9.1916 12.612 33.56 28.216-7.054 19.452-19.666 15.818-22.017-6.8401 2.3513-45.317-2.3513-37.621"/>
  <path d="m272.45 704.03l-7.054 15.818-10.474 21.59 8.1228 19.452 13.894-4.7027-4.4889-23.727 12.612-9.1916 28.857 9.1916 15.177-12.612-22.017-4.4889h-22.017l7.054-18.17-31.209 8.9779 11.543-2.1376"/>
  <path d="m289.77 408.62l22.017 13.68-12.826 7.909 14.963 13.68-2.1376 13.68-17.528 1.0688-13.68-14.749-12.825-13.68 22.017-21.59"/>
  <path d="m318.62 534.74l22.017-17.101 8.1228 21.59-12.826 14.749 7.054 20.521v17.101l-13.894 19.238-17.314-11.329 17.314-25.01 9.1916-28.43-24.368 4.7027-19.666-18.383 8.1228-14.749 18.597-2.1376-2.3513 19.238"/>
 </g>
 <g fill="#c3a86a">
  <path d="m371.85 603.99l-26.506 4.7027-9.4053 12.398 10.474 18.169 9.1916 17.101-17.314 8.9778-2.3513 10.26 7.054 17.1 14.963 20.307-6.8402-21.59v-20.307l13.894-3.4201v-18.169l-7.054-23.941 22.017-4.4889-8.1228-17.101"/>
  <path d="m241.24 527.9l21.803 4.4889-2.1376 18.383 16.032 16.887-4.4889 10.26h-13.894l-5.7715-17.101-13.894 11.329 2.3513-44.248"/>
  <path d="m329.1 713.01l-15.177 23.941-24.155 7.9089-24.368 22.658 48.523-4.4889 4.7027-19.238 14.963-6.8401 7.054-13.68-11.543-10.26"/>
 </g>
 <g fill="#585853">
  <path d="m569.58 615.32l-28.857 5.7715-2.3513 23.941 17.528 15.818-4.7027 17.101-10.474 11.329 8.1228 14.749 20.734 32.919-6.8402-39.759 8.1228-17.1 11.543-11.329 2.3513-27.147-17.314 3.4201 12.612-23.941-10.474-27.361v21.59"/>
  <path d="m567.44 433.63l-4.7027 31.85-22.017 13.68 24.368 3.4201 17.314-3.4201 2.3513-27.361-19.666-43.179 2.3513 25.01"/>
 </g>
 <g fill="#c3a86a">
  <path d="m538.37 582.4l-11.543 9.1916 4.7026 10.26-10.474 8.9778 8.1228 12.612-14.963 20.307 2.3513 19.452 14.963-4.7027v-23.727l9.1916-23.941 22.017-2.1376-6.8402-14.963-17.528-11.329"/>
  <path d="m521.05 506.31l34.842 9.1916 4.4889 16.887-19.666-5.5577h-22.017l2.3513-20.521"/>
  <path d="m536.23 713.01v30.781l2.1376 19.238-21.803-2.1376 2.1376-19.452v-21.59l17.528-28.43v21.59"/>
  <path d="m248.08 460.99l14.963 4.4889 7.054 14.749-26.72 2.3513 4.7027-21.59"/>
 </g>
 <path d="m287.42 408.62l-26.506-2.1376-15.177 18.169 22.017 3.4201 19.666-19.452" fill="#4b4c47"/>
 <g fill="#7e7a6c">
  <path d="m204.05 337.23l-28.857 21.376v13.68l14.963 7.909 7.054-12.398 22.017-6.8402-15.177-23.727"/>
  <path d="m143.98 380.19l9.1916 22.872-12.612 21.59 2.3513 16.887-22.017 26.292-18.597 32.919v-35.27l13.894-19.238 12.825-23.941-10.474-19.238 14.963-18.169 10.474-4.7027"/>
 </g>
 <path d="m118.55 469.97l-16.246 28.43-2.3513 17.101 11.543 12.398 10.474-5.5577-3.4201-19.452 3.4201-15.818 9.1916-28.43-12.612 11.329" fill="#c3a86a"/>
 <g fill="#585853">
  <path d="m121.97 404.13l7.054 23.941-10.474 23.727-16.246 13.68-5.7715 14.749 2.3513-45.317 12.612-6.8403-2.1376-19.452 24.155-14.749-12.612 21.59 1.0688-11.329"/>
  <path d="m186.74 367.79l-6.8402 36.339 19.666-12.398 9.1916-28.43-22.017 4.4889"/>
 </g>
 <path d="m212.17 332.52l20.948-37.408c26.363-10.492 34.825-29.652 55.363-44.248l-7.909 10.26-22.017 20.307-16.246 14.749-5.7715 9.1916h2.3513l2.3513-1.2826 5.7714-3.4201 5.7714-5.5577 17.314-18.169 11.543-12.612 6.8402-4.4889-6.8402 10.26-13.894 13.68-22.017 21.59-2.3513 8.9778 10.474-3.4201 8.1228-15.818 13.894-10.26-11.543 12.612-5.7715 7.909-13.894 15.818-10.474 11.329-9.1916 16.032-12.826-16.032" fill="#988352"/>
 <path d="m238.89 524.48l-3.6339-28.43v-31.636l-1.0688-20.521-6.8403 29.498-2.3513 19.452-12.826-18.383-5.7715-20.307 1.2826 25.01 11.543 22.658-12.826 17.101-19.666 8.9778-33.56 14.749 29.071 3.4201 43.82-11.329 12.825-10.26" fill="#141313"/>
 <g fill="#131313">
  <path d="m494.55 501.82l13.894 25.01 2.1376-21.59 3.6339-19.238 4.4889 32.919-5.7715 37.408-3.4201 37.408 3.4201 29.712-8.1228 54.508 3.6339 86.144-10.474-2.1375 1.0688-32.919-1.0688-25.01-3.4201-31.85 10.26-4.4889 3.6339-27.361-4.7027-28.43-12.825-26.078 9.4053-7.909 4.4889-20.521-9.1916-29.498-1.0688-26.078"/>
  <path d="m234.19 412.04l31.209-19.238 35.911-6.8402-9.1916 11.329 16.032-7.909 9.4053-15.818 17.314-29.712-14.963 14.749-12.825 11.543-48.523 13.467-18.597 14.749-13.894 4.7027-13.894 14.749 3.4201-9.1916 10.474-14.749 18.597-18.169-12.825-10.26-24.155 34.201-7.054 12.398-12.612 14.749 7.909 12.612-2.1376 22.658-22.017 15.818-12.825 19.452 27.788-14.749-3.4201 13.467-18.597 31.85 20.948-13.68 14.963-22.658-3.4201-29.498 9.1916-20.521 13.894-13.467-3.4201 23.727 14.963-30.567 2.3513-9.1916"/>
 </g>
</svg>
