<svg width="60" height="60" viewBox="0 0 60 60" fill="none" xmlns="http://www.w3.org/2000/svg">
<path d="M37.5001 25.5002C37.4987 23.844 36.1561 22.5018 34.5003 22.5H25.5002V28.4999H34.5003C36.1561 28.4985 37.4987 27.1559 37.5001 25.5002Z" fill="#FFAB2D"/>
<path d="M30 0C13.4312 0 0 13.4312 0 30C0 46.5688 13.4312 60 30 60C46.5688 60 60 46.5688 60 30C59.9808 13.4395 46.5605 0.019226 30 0ZM30 54.0001C16.745 54.0001 5.99991 43.255 5.99991 30C5.99991 16.745 16.745 5.99991 30 5.99991C43.255 5.99991 54.0001 16.745 54.0001 30C53.985 43.2486 43.2486 53.985 30 54.0001Z" fill="#FFAB2D"/>
<path d="M25.5002 37.5H34.5003C36.157 37.5 37.5001 36.157 37.5001 34.5003C37.5001 32.8432 36.157 31.5001 34.5003 31.5001H25.5002V37.5Z" fill="#FFAB2D"/>
<path d="M30 9.00012C18.4021 9.00012 9.00012 18.4021 9.00012 30C9.00012 41.5979 18.4021 50.9999 30 50.9999C41.5979 50.9999 50.9999 41.5979 50.9999 30C50.9867 18.4076 41.5924 9.0134 30 9.00012ZM40.5002 34.4998C40.4961 37.8122 37.8122 40.4961 34.5003 40.4998V41.9998C34.5003 42.8284 33.8283 43.4999 33.0002 43.4999C32.1717 43.4999 31.5001 42.8284 31.5001 41.9998V40.4998H28.5004V41.9998C28.5004 42.8284 27.8284 43.4999 27.0003 43.4999C26.1718 43.4999 25.5002 42.8284 25.5002 41.9998V40.4998H21.0004C20.1718 40.4998 19.5003 39.8282 19.5003 39.0001C19.5003 38.1716 20.1718 37.5 21.0004 37.5H22.5V22.5H21.0004C20.1718 22.5 19.5003 21.8285 19.5003 20.9999C19.5003 20.1714 20.1718 19.4998 21.0004 19.4998H25.5002V18.0002C25.5002 17.1717 26.1718 16.5001 27.0003 16.5001C27.8289 16.5001 28.5004 17.1717 28.5004 18.0002V19.4998H31.5001V18.0002C31.5001 17.1717 32.1717 16.5001 33.0002 16.5001C33.8288 16.5001 34.5003 17.1717 34.5003 18.0002V19.4998C37.7999 19.4861 40.486 22.1494 40.5002 25.4489C40.5075 27.1962 39.7499 28.8593 38.4265 30C39.7376 31.128 40.4943 32.77 40.5002 34.4998Z" fill="#FFAB2D"/>
</svg>
