<svg width="125" height="125" viewBox="0 0 125 125" fill="none" xmlns="http://www.w3.org/2000/svg">
<path d="M82.9853 49.7962C82.9817 45.5012 79.4999 42.0206 75.2061 42.0158H51.8662V57.5753H75.2061C79.4999 57.5718 82.9817 54.09 82.9853 49.7962Z" fill="#FFAB2D"/>
<path d="M51.8662 83.508H75.2061C79.5023 83.508 82.9853 80.025 82.9853 75.7288C82.9853 71.4315 79.5023 67.9485 75.2061 67.9485H51.8662V83.508Z" fill="#FFAB2D"/>
<path d="M62.2381 0.523804C27.865 0.523804 0 28.3888 0 62.7619C0 97.135 27.865 125 62.2381 125C96.6112 125 124.476 97.135 124.476 62.7619C124.437 28.4051 96.5949 0.563148 62.2381 0.523804ZM93.3578 76.0981C93.3456 85.9151 85.3913 93.8694 75.5757 93.8803V98.3261C75.5757 100.782 73.5841 102.772 71.1298 102.772C68.6742 102.772 66.684 100.782 66.684 98.3261V93.8803H57.7936V98.3261C57.7936 100.782 55.802 102.772 53.3477 102.772C50.8921 102.772 48.9018 100.782 48.9018 98.3261V93.8803H35.5656C33.11 93.8803 31.1197 91.89 31.1197 89.4358C31.1197 86.9801 33.11 84.9899 35.5656 84.9899H40.0101V40.5339H35.5656C33.11 40.5339 31.1197 38.5436 31.1197 36.088C31.1197 33.6324 33.11 31.6422 35.5656 31.6422H48.9018V27.1977C48.9018 24.7421 50.8921 22.7518 53.3477 22.7518C55.8033 22.7518 57.7936 24.7421 57.7936 27.1977V31.6422H66.684V27.1977C66.684 24.7421 68.6742 22.7518 71.1298 22.7518C73.5854 22.7518 75.5757 24.7421 75.5757 27.1977V31.6422C85.3547 31.6015 93.3158 39.4947 93.3578 49.2737C93.3795 54.4522 91.1342 59.381 87.212 62.7619C91.0976 66.1048 93.3402 70.9712 93.3578 76.0981Z" fill="#FFAB2D"/>
</svg>
