<svg width="60" height="60" viewBox="0 0 60 60" fill="none" xmlns="http://www.w3.org/2000/svg">
<path d="M29.9999 9.00012C18.402 9.00012 9 18.4021 9 30C9 41.5979 18.402 50.9999 29.9999 50.9999C41.5978 50.9999 50.9998 41.5979 50.9998 30C50.9865 18.4076 41.5923 9.0134 29.9999 9.00012ZM40.3037 27.6902C39.5228 28.38 38.621 28.9193 37.6436 29.28C36.952 29.5038 36.3193 29.8796 35.792 30.3804C35.0921 32.0471 35.5219 33.9748 36.8645 35.1865C36.9103 35.2323 36.9533 35.2812 36.9932 35.333C38.6823 37.4973 38.5107 40.5767 36.5917 42.54C34.4672 44.6608 31.0262 44.6608 28.9013 42.54C27.5568 40.9264 27.1174 38.7433 27.7326 36.7351C27.8814 35.5747 27.4845 34.4101 26.6573 33.5825C25.8365 32.7915 24.6985 32.4202 23.5692 32.5745C21.561 33.1888 19.3784 32.748 17.7657 31.4031C15.6422 29.2823 15.6403 25.8417 17.7611 23.7186C17.7625 23.7168 17.7643 23.7154 17.7657 23.714C19.7281 21.7937 22.8089 21.622 24.9727 23.3126C26.4875 24.8094 28.7314 25.3134 29.9239 24.511C30.4265 23.985 30.8028 23.3519 31.0253 22.6593C31.386 21.6829 31.9243 20.782 32.6133 20.002C34.7368 17.8784 38.1792 17.8784 40.3028 20.0016C42.4268 22.1251 42.4268 25.5675 40.3037 27.6911V27.6902Z" fill="#2B98D6"/>
<path d="M30 0C13.4312 0 0 13.4312 0 30C0 46.5688 13.4312 60 30 60C46.5688 60 60 46.5688 60 30C59.9808 13.4395 46.5605 0.019226 30 0ZM30 54.0001C16.745 54.0001 5.99991 43.255 5.99991 30C5.99991 16.745 16.745 5.99991 30 5.99991C43.255 5.99991 54.0001 16.745 54.0001 30C53.985 43.2486 43.2486 53.985 30 54.0001Z" fill="#2B98D6"/>
<path d="M34.7347 22.1205C34.3255 22.646 34.0018 23.2329 33.7766 23.8595C33.366 25.095 32.6079 26.1864 31.594 27.003C28.7348 28.5383 25.1995 27.9446 22.9986 25.5597C22.0267 24.9078 20.7313 25.0213 19.8876 25.8325C18.9354 26.7833 18.9345 28.3264 19.8853 29.2785C19.8862 29.279 19.8867 29.2799 19.8876 29.2804C20.4616 29.8521 21.2792 29.9428 23.0251 29.6232C23.379 29.5592 23.7378 29.5267 24.0976 29.5267C25.8468 29.555 27.5199 30.2463 28.7792 31.4602C30.3049 32.986 31.0126 35.1475 30.6839 37.2803C30.3589 39.022 30.4496 39.8424 31.0241 40.4178C31.9767 41.3685 33.5193 41.3685 34.4719 40.4178C35.295 39.5384 35.3765 38.1985 34.6656 37.2262C32.3411 35.0212 31.7817 31.5321 33.3005 28.7109C34.1172 27.6974 35.2085 26.9403 36.444 26.531C37.0716 26.3049 37.6589 25.9794 38.1839 25.5675C39.1356 24.6153 39.1356 23.0717 38.1835 22.12C37.2309 21.1683 35.6878 21.1688 34.7361 22.121L34.7347 22.1205Z" fill="#2B98D6"/>
</svg>
